<svg width="1922" height="897" viewBox="0 0 1922 897" fill="none" xmlns="http://www.w3.org/2000/svg">
<path d="M0.589996 336.43C81.06 277.08 205.06 201.69 367.21 166.43C650.89 104.74 834.46 213 1080.41 242.43C1276.04 265.84 1557.5 244.92 1920.59 38.43" stroke="#F1FFE0" stroke-width="2" stroke-miterlimit="10"/>
<path d="M0.589996 331.01C81.06 271.66 205.06 196.27 367.21 161.01C650.89 99.32 834.46 207.58 1080.41 237.01C1276.04 260.42 1557.5 239.5 1920.59 33.01" stroke="#F2F4D7" stroke-width="1.86" stroke-miterlimit="10"/>
<path d="M0.589996 325.58C81.06 266.23 205.06 190.84 367.21 155.58C650.89 93.89 834.46 202.15 1080.41 231.58C1276.04 254.99 1557.5 234.07 1920.59 27.58" stroke="#F2EACE" stroke-width="1.71" stroke-miterlimit="10"/>
<path d="M0.589996 320.15C81.06 260.8 205.06 185.41 367.21 150.15C650.89 88.46 834.46 196.72 1080.41 226.15C1276.04 249.56 1557.5 228.64 1920.59 22.15" stroke="#F3DFC5" stroke-width="1.57" stroke-miterlimit="10"/>
<path d="M0.589996 314.72C81.06 255.37 205.06 179.98 367.21 144.72C650.89 83.03 834.46 191.29 1080.41 220.72C1276.04 244.13 1557.5 223.21 1920.59 16.72" stroke="#F3D5BB" stroke-width="1.43" stroke-miterlimit="10"/>
<path d="M0.589996 309.29C81.06 249.94 205.06 174.55 367.21 139.29C650.89 77.6 834.46 185.86 1080.41 215.29C1276.04 238.7 1557.5 217.78 1920.59 11.29" stroke="#F4CAB2" stroke-width="1.29" stroke-miterlimit="10"/>
<path d="M0.589996 303.86C81.06 244.51 205.06 169.12 367.21 133.86C650.89 72.17 834.46 180.43 1080.41 209.86C1276.04 233.27 1557.5 212.35 1920.59 5.85999" stroke="#F4C0A9" stroke-width="1.14" stroke-miterlimit="10"/>
<path d="M0.589996 298.43C81.06 239.08 205.06 163.69 367.21 128.43C650.89 66.74 834.46 175 1080.41 204.43C1276.04 227.84 1557.5 206.92 1920.59 0.429993" stroke="#F5B5A0" stroke-miterlimit="10"/>
<path d="M0.589996 560.55C81.06 619.9 205.06 695.29 367.21 730.55C650.89 792.24 834.46 683.98 1080.41 654.55C1276.04 631.14 1557.5 652.06 1920.59 858.55" stroke="#FFF6ED" stroke-width="2" stroke-miterlimit="10"/>
<path d="M0.589996 565.98C81.06 625.33 205.06 700.72 367.21 735.98C650.89 797.67 834.46 689.41 1080.41 659.98C1276.04 636.57 1557.5 657.49 1920.59 863.98" stroke="#F9ECEF" stroke-width="1.86" stroke-miterlimit="10"/>
<path d="M0.589996 571.41C81.06 630.76 205.06 706.15 367.21 741.41C650.89 803.1 834.46 694.84 1080.41 665.41C1276.04 642 1557.5 662.92 1920.59 869.41" stroke="#F4E3F1" stroke-width="1.71" stroke-miterlimit="10"/>
<path d="M0.589996 576.84C81.06 636.19 205.06 711.58 367.21 746.84C650.89 808.53 834.46 700.27 1080.41 670.84C1276.04 647.43 1557.5 668.35 1920.59 874.84" stroke="#EED9F3" stroke-width="1.57" stroke-miterlimit="10"/>
<path d="M0.589996 582.27C81.06 641.62 205.06 717.01 367.21 752.27C650.89 813.96 834.46 705.7 1080.41 676.27C1276.04 652.86 1557.5 673.78 1920.59 880.27" stroke="#E8D0F6" stroke-width="1.43" stroke-miterlimit="10"/>
<path d="M0.589996 587.69C81.06 647.04 205.06 722.43 367.21 757.69C650.89 819.38 834.46 711.12 1080.41 681.69C1276.04 658.28 1557.5 679.2 1920.59 885.69" stroke="#E2C6F8" stroke-width="1.29" stroke-miterlimit="10"/>
<path d="M0.589996 593.12C81.06 652.47 205.06 727.86 367.21 763.12C650.89 824.81 834.46 716.55 1080.41 687.12C1276.04 663.71 1557.5 684.63 1920.59 891.12" stroke="#DDBDFA" stroke-width="1.14" stroke-miterlimit="10"/>
<path d="M0.589996 598.55C81.06 657.9 205.06 733.29 367.21 768.55C650.89 830.24 834.46 721.98 1080.41 692.55C1276.04 669.14 1557.5 690.06 1920.59 896.55" stroke="#D7B3FC" stroke-miterlimit="10"/>
</svg>
